<svg width="24" height="24" viewBox="0 0 24 24" fill="none" xmlns="http://www.w3.org/2000/svg">
<path d="M18.2368 5.9203C16.9969 3.81942 15.2365 2.07346 13.1255 0.850764L12.75 0.633545L12.3744 0.850764C10.2275 2.08977 8.44482 3.87236 7.20567 6.01918C5.96651 8.16599 5.31463 10.6013 5.31561 13.0801C5.31561 13.2416 5.31843 13.4056 5.32391 13.5676C5.39854 15.764 6.23849 17.6121 7.75297 18.9122C8.91191 19.9071 10.3985 20.5145 12.0002 20.6593V23.25H13.5002V11.25H12V19.1497C9.46574 18.8562 6.94344 17.0659 6.82293 13.5166C6.81796 13.3715 6.81543 13.2246 6.81543 13.0801C6.81989 10.9397 7.36651 8.83542 8.40427 6.9635C9.44204 5.09157 10.9371 3.51306 12.75 2.37528C14.5628 3.51309 16.0579 5.0916 17.0956 6.96353C18.1333 8.83545 18.6799 10.9398 18.6844 13.0801C18.6844 13.2246 18.6818 13.3715 18.6769 13.5166C18.5805 16.356 16.9468 18.0695 14.9998 18.7917V20.3793C16.0102 20.0929 16.9471 19.5925 17.747 18.9121C19.2615 17.612 20.1014 15.7639 20.1761 13.5675C20.1816 13.4055 20.1844 13.2415 20.1844 13.08C20.1857 10.5624 19.5133 8.09033 18.2368 5.9203Z" fill="#1BB55C"/>
</svg>
