<svg width="20" height="20" viewBox="0 0 20 20" fill="none" xmlns="http://www.w3.org/2000/svg">
<path d="M19.8269 18.9258L14.3846 13.3594C15.6282 11.849 16.25 10.1107 16.25 8.14453C16.25 7.03776 16.0385 5.98307 15.6154 4.98047C15.1923 3.97786 14.625 3.11198 13.9135 2.38281C13.2019 1.65365 12.3526 1.07422 11.3654 0.644531C10.3782 0.214844 9.33974 0 8.25 0C6.80128 0 5.46154 0.361328 4.23077 1.08398C3 1.80664 2.02885 2.79297 1.31731 4.04297C0.605769 5.29297 0.25 6.6569 0.25 8.13476C0.25 9.61263 0.605769 10.9766 1.31731 12.2266C2.02885 13.4766 3 14.4629 4.23077 15.1855C5.46154 15.9082 6.80128 16.2695 8.25 16.2695C10.25 16.2695 12.0064 15.599 13.5192 14.2578L18.9423 19.8047C18.9936 19.8568 19.0481 19.8991 19.1058 19.9316C19.1635 19.9642 19.2244 19.9837 19.2885 19.9902C19.3526 19.9967 19.4167 19.9967 19.4808 19.9902C19.5449 19.9837 19.6058 19.9642 19.6635 19.9316C19.7212 19.8991 19.7756 19.8568 19.8269 19.8047C19.9423 19.6875 20 19.541 20 19.3652C20 19.1895 19.9423 19.043 19.8269 18.9258ZM8.25 15C7.01923 15 5.88462 14.6908 4.84615 14.0723C3.80769 13.4538 2.98718 12.6172 2.38462 11.5625C1.78205 10.5078 1.48077 9.36198 1.48077 8.125C1.48077 6.88802 1.78205 5.74219 2.38462 4.6875C2.98718 3.63281 3.80769 2.79622 4.84615 2.17773C5.88462 1.55924 7.01603 1.25 8.24039 1.25C9.46474 1.25 10.5962 1.55924 11.6346 2.17773C12.6731 2.79622 13.4968 3.63281 14.1058 4.6875C14.7147 5.74219 15.0192 6.88802 15.0192 8.125C15.0192 9.96094 14.391 11.543 13.1346 12.8711C11.891 14.1862 10.3782 14.8958 8.59615 15H8.25ZM11.3269 7.5H8.86539V5C8.86539 4.83073 8.80449 4.68424 8.68269 4.56055C8.5609 4.43685 8.41346 4.375 8.24039 4.375C8.06731 4.375 7.92308 4.43685 7.80769 4.56055C7.69231 4.68424 7.63462 4.83073 7.63462 5V7.5H5.17308C4.99359 7.5 4.84615 7.56185 4.73077 7.68555C4.61538 7.80924 4.55769 7.95573 4.55769 8.125C4.55769 8.29427 4.61538 8.44075 4.73077 8.56445C4.84615 8.68815 4.99359 8.75 5.17308 8.75H7.63462V11.25C7.63462 11.4193 7.69231 11.5658 7.80769 11.6895C7.92308 11.8131 8.06731 11.875 8.24039 11.875C8.41346 11.875 8.5609 11.8131 8.68269 11.6895C8.80449 11.5658 8.86539 11.4193 8.86539 11.25V8.75H11.3269C11.4936 8.75 11.6378 8.68815 11.7596 8.56445C11.8814 8.44075 11.9423 8.29427 11.9423 8.125C11.9423 7.95573 11.8814 7.80924 11.7596 7.68555C11.6378 7.56185 11.4936 7.5 11.3269 7.5Z" fill="#263238"/>
</svg>
